<svg xmlns="http://www.w3.org/2000/svg" width="20" height="20" viewBox="0 0 20 20">
  <g id="clap-hands" transform="translate(0 -0.6)">
    <path id="Path_614" data-name="Path 614" d="M73.416,18.024a1.7,1.7,0,0,1,.708,1.369l.016.548L78.793,15.2a.922.922,0,0,0,.09-1.217.906.906,0,0,0-1.349-.08Z" transform="translate(-68.189 -12.16)" fill="#fe6f6f"/>
    <path id="Path_615" data-name="Path 615" d="M1.137,58.374l.3-.35.82-5.962a1.708,1.708,0,0,1,1.336-1.6l-.024-.837a.894.894,0,0,0-1.789,0L.922,55.869v0l-.829.964a.379.379,0,0,0,.02.516Z" transform="translate(0 -44.6)" fill="#fe6f6f"/>
    <path id="Path_616" data-name="Path 616" d="M168.8,28.878a1.705,1.705,0,0,1,.948.6,1.681,1.681,0,0,1,.323.679l.483-.483a.922.922,0,0,0,.09-1.217.906.906,0,0,0-1.349-.08Z" transform="translate(-156.916 -25.661)" fill="#fe6f6f"/>
    <path id="Path_617" data-name="Path 617" d="M247.743,23.475a.4.4,0,0,0,.234-.075l1.012-.716a.405.405,0,0,0-.468-.661l-1.012.716a.405.405,0,0,0,.234.736Z" transform="translate(-229.897 -19.907)" fill="#fe6f6f"/>
    <path id="Path_618" data-name="Path 618" d="M228.461,2.545a.4.4,0,0,0,.522-.237l.436-1.16a.405.405,0,1,0-.758-.285l-.436,1.16A.405.405,0,0,0,228.461,2.545Z" transform="translate(-212.05 0)" fill="#fe6f6f"/>
    <path id="Path_619" data-name="Path 619" d="M256.539,55.623h-.008l-1.239.01a.393.393,0,0,0-.4.4.408.408,0,0,0,.4.4h.008l1.239-.021a.4.4,0,0,0,.4-.408A.392.392,0,0,0,256.539,55.623Z" transform="translate(-236.944 -51.141)" fill="#fe6f6f"/>
    <path id="Path_620" data-name="Path 620" d="M33.823,59.182a.906.906,0,0,0-.08-1.349.877.877,0,0,0-.547-.188.951.951,0,0,0-.67.279L30.5,59.948a.417.417,0,0,1-.59,0l-.005-.005a.452.452,0,0,1,0-.639l3.264-3.265a.922.922,0,0,0,.09-1.217.906.906,0,0,0-1.349-.08l-3.3,3.3a.435.435,0,0,1-.615,0,.441.441,0,0,1,0-.624l4.192-4.192A.922.922,0,0,0,32.284,52a.906.906,0,0,0-1.349-.08l-4.211,4.211a.438.438,0,1,1-.623-.616l3.276-3.276a.922.922,0,0,0,.09-1.217.906.906,0,0,0-1.349-.08L23.362,55.7a.407.407,0,0,1-.291.122.415.415,0,0,1-.418-.4l-.042-1.474a.894.894,0,1,0-1.789,0l-.859,6.244v0l-.829.964a.379.379,0,0,0,.02.516l4.7,4.7a.379.379,0,0,0,.5.032l1.057-.812a.387.387,0,0,1,.153-.07c1.834-.4,3.921-2,5.918-4Z" transform="translate(-17.756 -45.88)" fill="#fe6f6f"/>
    <line id="Line_5" data-name="Line 5" transform="translate(11.424 3.172)" fill="none" stroke="#fff" stroke-linecap="round" stroke-linejoin="round" stroke-width="0"/>
  </g>
</svg>
