<svg xmlns="http://www.w3.org/2000/svg" width="19.62" height="19.62" viewBox="0 0 19.62 19.62">
  <g id="free" transform="translate(0 0)">
    <g id="Group_131" data-name="Group 131" transform="translate(14.479 4.277)">
      <g id="Group_130" data-name="Group 130">
        <path id="Path_621" data-name="Path 621" d="M378.564,111.731a.424.424,0,1,0,0,.6h0a.424.424,0,0,0,0-.6Z" transform="translate(-377.84 -111.607)" fill="#fe6f6f"/>
      </g>
    </g>
    <g id="Group_133" data-name="Group 133" transform="translate(7.206 10.461)">
      <g id="Group_132" data-name="Group 132">
        <path id="Path_622" data-name="Path 622" d="M189.025,273.172a.388.388,0,0,0-.631-.01l-.341.341.641.641.341-.341a.388.388,0,0,0-.01-.631Z" transform="translate(-188.053 -273.005)" fill="#fe6f6f"/>
      </g>
    </g>
    <g id="Group_135" data-name="Group 135" transform="translate(0 0)">
      <g id="Group_134" data-name="Group 134" transform="translate(0 0)">
        <path id="Path_623" data-name="Path 623" d="M19.591,7.574,18.657,2.4a1.794,1.794,0,0,0-1.44-1.44L12.046.028a1.787,1.787,0,0,0-1.581.495L.523,10.465a1.786,1.786,0,0,0,0,2.526L6.628,19.1a1.786,1.786,0,0,0,2.526,0L19.1,9.155A1.787,1.787,0,0,0,19.591,7.574ZM7.359,14.82a.62.62,0,0,1-.379.379.189.189,0,0,1-.2-.043L4.591,12.968a.193.193,0,0,1-.053-.191.432.432,0,0,1,.122-.208l1.2-1.2a.188.188,0,0,1,.189-.052.436.436,0,0,1,.2.121.443.443,0,0,1,.126.212.189.189,0,0,1-.05.188l-.892.892.582.582.52-.52a.194.194,0,0,1,.181-.057.358.358,0,0,1,.191.105.352.352,0,0,1,.1.183.192.192,0,0,1-.059.183l-.52.52.889.889A.189.189,0,0,1,7.359,14.82Zm2.929-2.98a.5.5,0,0,1-.14.319.253.253,0,0,1-.272.072l-1.388-.444-.227.227.83.83a.189.189,0,0,1,.043.2.62.62,0,0,1-.379.379.189.189,0,0,1-.2-.043L6.362,11.19a.229.229,0,0,1,0-.327l.713-.713q.848-.848,1.585-.11a.946.946,0,0,1,.282,1.116l1.182.341a.147.147,0,0,1,.079.045A.354.354,0,0,1,10.288,11.84Zm1.9-1.766L10.965,11.3a.432.432,0,0,1-.208.122.193.193,0,0,1-.191-.053L8.378,9.182a.193.193,0,0,1-.053-.191.432.432,0,0,1,.122-.208L9.673,7.555A.188.188,0,0,1,9.863,7.5a.436.436,0,0,1,.2.121.443.443,0,0,1,.126.212.189.189,0,0,1-.05.188l-.923.923L9.8,9.53l.517-.517a.194.194,0,0,1,.181-.057.358.358,0,0,1,.191.105.352.352,0,0,1,.1.183.192.192,0,0,1-.059.183l-.517.517.586.586.923-.923a.189.189,0,0,1,.188-.05.442.442,0,0,1,.212.126.437.437,0,0,1,.121.2A.187.187,0,0,1,12.192,10.074Zm1.857-1.857L12.822,9.444a.432.432,0,0,1-.208.122.193.193,0,0,1-.191-.053L10.235,7.325a.193.193,0,0,1-.053-.191.432.432,0,0,1,.122-.208L11.53,5.7a.188.188,0,0,1,.189-.052.437.437,0,0,1,.2.121.443.443,0,0,1,.126.212.189.189,0,0,1-.05.188l-.923.923.582.582.517-.517a.194.194,0,0,1,.181-.057.358.358,0,0,1,.191.105.352.352,0,0,1,.1.183.192.192,0,0,1-.059.183l-.517.517.586.586.923-.923a.189.189,0,0,1,.188-.05.488.488,0,0,1,.333.329A.187.187,0,0,1,14.049,8.217Zm1.968-2.4A1.575,1.575,0,1,1,16.478,4.7,1.57,1.57,0,0,1,16.017,5.815Z" transform="translate(0 0)" fill="#fe6f6f"/>
      </g>
    </g>
  </g>
</svg>
