<svg xmlns="http://www.w3.org/2000/svg" width="20" height="19.052" viewBox="0 0 20 19.052">
  <g id="like" transform="translate(0 -12.137)">
    <g id="Group_137" data-name="Group 137" transform="translate(0 18.434)">
      <g id="Group_136" data-name="Group 136">
        <rect id="Rectangle_32" data-name="Rectangle 32" width="4.688" height="12.372" fill="#fe6f6f"/>
      </g>
    </g>
    <g id="Group_139" data-name="Group 139" transform="translate(5.859 12.137)">
      <g id="Group_138" data-name="Group 138">
        <path id="Path_624" data-name="Path 624" d="M163.715,23.6a1.975,1.975,0,0,0-.4-1.191,1.985,1.985,0,0,0-1.162-3.594h-4.513l.628-2.17v-1.04a3.478,3.478,0,0,0-3.474-3.474.843.843,0,0,0-.842.842v2.3c-.313.5-2.053,2.453-3.953,4.5V30.036l1.622.608a8.527,8.527,0,0,0,3,.545h6.251a1.985,1.985,0,0,0,1.588-3.176,1.983,1.983,0,0,0,.426-2.8A1.984,1.984,0,0,0,163.715,23.6Z" transform="translate(-150 -12.137)" fill="#fe6f6f"/>
      </g>
    </g>
  </g>
</svg>
