<svg xmlns="http://www.w3.org/2000/svg" width="205.599" height="89.861" viewBox="0 0 205.599 89.861">
  <g id="Group_330" data-name="Group 330" transform="translate(0 150.678)">
    <path id="Path_3256" data-name="Path 3256" d="M133.583-16.553a6.893,6.893,0,0,1-4.23-1,4.846,4.846,0,0,1-1.575-3.24,58.95,58.95,0,0,1-.326-7.461,58.951,58.951,0,0,1,.326-7.461,4.846,4.846,0,0,1,1.575-3.24,6.893,6.893,0,0,1,4.23-1,6.974,6.974,0,0,1,4.246,1,4.808,4.808,0,0,1,1.592,3.24,58.949,58.949,0,0,1,.326,7.461,58.949,58.949,0,0,1-.326,7.461,4.808,4.808,0,0,1-1.592,3.24A6.974,6.974,0,0,1,133.583-16.553Zm-16.4-.266V-39.684h4.144v19.176h4.726v3.689Zm-10.992,0V-39.684h8.938v3.623H110.33v6.348h4.246v3.623H110.33v9.272Zm74.893,0V-39.684h9.383v3.623h-5.24v5.883h4.589v3.623h-4.589v6.115h5.24v3.623Zm-9.52,0V-36H167.9v-3.689h11.472V-36H175.7v19.176Zm29.861,0-.787-5.018h-4.041l-.788,5.018H191.73l3.87-22.865h6.1l3.9,22.865Zm-47.771,0L151.6-33.5h-.205l-2.021,16.684h-5.753l-2.671-22.865h4.178l1.506,18.512h.24l2.192-18.512H154.1l2.26,18.512h.24l1.438-18.512h4.041L159.4-16.819Zm-20.067-3.357a1.912,1.912,0,0,0,1.4-.4,3.638,3.638,0,0,0,.5-1.961q.12-1.562.12-5.716t-.12-5.716a3.638,3.638,0,0,0-.5-1.961,1.912,1.912,0,0,0-1.4-.4,1.848,1.848,0,0,0-1.387.4,3.908,3.908,0,0,0-.5,1.977q-.138,1.579-.137,5.7t.137,5.7a3.908,3.908,0,0,0,.5,1.977A1.848,1.848,0,0,0,133.583-20.176Zm65.133-15.388h-.205L197-25.36h3.219ZM26.231-39.256v12.8a47.94,47.94,0,0,1-.308,6.531,4.22,4.22,0,0,1-1.541,2.891,7.062,7.062,0,0,1-4.109.914,7.061,7.061,0,0,1-4.109-.914,4.22,4.22,0,0,1-1.541-2.891,47.939,47.939,0,0,1-.308-6.531v-12.8h4.109V-24.9q0,2.559.1,3.54a2.019,2.019,0,0,0,.462,1.3,1.975,1.975,0,0,0,1.284.316,1.976,1.976,0,0,0,1.284-.316,1.992,1.992,0,0,0,.462-1.28q.1-.964.1-3.556V-39.256ZM0-39.256H6.438a4.837,4.837,0,0,1,3.818,1.412,6.4,6.4,0,0,1,1.25,4.337,8.023,8.023,0,0,1-.685,3.706,3.316,3.316,0,0,1-2.157,1.678v.133a3.471,3.471,0,0,1,2.346,1.645,8.092,8.092,0,0,1,.7,3.839,7.215,7.215,0,0,1-1.233,4.57A4.913,4.913,0,0,1,6.4-16.391H0ZM69.482-16.391V-39.256h9.383v3.623H73.626v5.883h4.589v3.623H73.626v6.115h5.239v3.623Zm-36.95,0v-8.176l-4.589-14.69h4.144l2.466,10.2H34.9l2.363-10.2h4.007l-4.589,14.69v8.176Zm63.25,0-.788-5.018h-4.04l-.788,5.018H86.091l3.87-22.865h6.1l3.9,22.865Zm-33.663,0V-34.071h-.24L59.141-16.391H55L52.326-34.071h-.274v17.681h-3.9V-39.256h6.4l2.534,16.85h.24l2.534-16.85h6.232v22.865ZM5.582-20.013a2.755,2.755,0,0,0,1.3-.233,1.223,1.223,0,0,0,.548-.864A10.374,10.374,0,0,0,7.568-23.1,8.378,8.378,0,0,0,7.4-25.081a1.34,1.34,0,0,0-.582-.881,2.569,2.569,0,0,0-1.233-.233H4.075v6.182Zm87.5-15.122h-.206l-1.506,10.2h3.219ZM5.548-29.718a1.794,1.794,0,0,0,1.558-.6,4.433,4.433,0,0,0,.428-2.36,8.58,8.58,0,0,0-.154-1.911,1.2,1.2,0,0,0-.565-.831,2.838,2.838,0,0,0-1.267-.216H4.075v5.916Z" transform="translate(0 -44.692)" fill="#131b2d"/>
    <path id="Path_3257" data-name="Path 3257" d="M154.037-150.678h-9.058a10.8,10.8,0,0,0-10.79,10.79l2.664,32.235c0,5.955,2.171,10.789,8.126,10.789h21.579c5.955,0,9.191-4.835,9.191-10.789l1.6-32.235a10.8,10.8,0,0,0-10.79-10.79H157.5v14.406a5.118,5.118,0,0,1,4.662,5.1v7.672a3.2,3.2,0,0,1-3.2,3.2h-6.394a3.2,3.2,0,0,1-3.2-3.2v-7.672a5.119,5.119,0,0,1,4.662-5.1Zm1.731,16.843A1.733,1.733,0,0,1,157.5-132.1a1.732,1.732,0,0,1-1.732,1.731,1.732,1.732,0,0,1-1.731-1.731A1.732,1.732,0,0,1,155.768-133.835Z" transform="translate(-54.161)" fill="#9e94f7" fill-rule="evenodd"/>
  </g>
</svg>
