<svg xmlns="http://www.w3.org/2000/svg" width="36.375" height="44.656" viewBox="0 0 36.375 44.656">
  <g id="Group_331" data-name="Group 331" transform="translate(-340 -76)">
    <g id="Group_317" data-name="Group 317" transform="translate(340 166.656)">
      <path id="Path_3253" data-name="Path 3253" d="M16.393-90.234H8.912A8.916,8.916,0,0,0,0-81.323L2.2-54.7c0,4.919,1.793,8.912,6.711,8.912H26.735c4.919,0,7.591-3.993,7.591-8.912l1.32-26.625a8.916,8.916,0,0,0-8.912-8.912H19.254v11.9A4.228,4.228,0,0,1,23.1-74.127v6.337a2.642,2.642,0,0,1-2.64,2.64H15.183a2.642,2.642,0,0,1-2.641-2.64v-6.337a4.228,4.228,0,0,1,3.851-4.208Zm1.43,13.912a1.431,1.431,0,0,1,1.43,1.43,1.431,1.431,0,0,1-1.43,1.43,1.431,1.431,0,0,1-1.43-1.43A1.431,1.431,0,0,1,17.824-76.323Z" transform="translate(0 -0.214)" fill="#9e94f7" fill-rule="evenodd"/>
    </g>
  </g>
</svg>
