<svg xmlns="http://www.w3.org/2000/svg" width="20" height="12.779" viewBox="0 0 20 12.779">
  <g id="noun-membership-2397476" transform="translate(-83.999 -110.32)">
    <path id="Path_3331" data-name="Path 3331" d="M102.546,110.32H85.452A1.456,1.456,0,0,0,84,111.773v9.874a1.456,1.456,0,0,0,1.453,1.453h17.095A1.456,1.456,0,0,0,104,121.646v-9.874A1.442,1.442,0,0,0,102.546,110.32Zm-8.905,5.895-1.39,1.2a.437.437,0,0,0-.147.442l.421,1.79a.453.453,0,0,1-.674.484l-1.558-.947a.456.456,0,0,0-.463,0l-1.558.947a.453.453,0,0,1-.674-.484l.421-1.79a.436.436,0,0,0-.147-.442l-1.39-1.2a.443.443,0,0,1,.253-.779l1.832-.147a.474.474,0,0,0,.379-.274l.716-1.684a.448.448,0,0,1,.821,0l.716,1.684a.475.475,0,0,0,.379.274l1.832.147a.441.441,0,0,1,.232.779Zm7.2,4.253H95.767a.568.568,0,0,1,0-1.137h5.074a.568.568,0,0,1,0,1.137Zm0-3.2H95.767a.568.568,0,0,1,0-1.137h5.074a.566.566,0,0,1,.568.568A.553.553,0,0,1,100.841,117.267Zm0-3.179H95.767a.568.568,0,0,1,0-1.137h5.074a.568.568,0,0,1,0,1.137Z" transform="translate(0 0)" fill="#9ce781"/>
  </g>
</svg>
