<svg xmlns="http://www.w3.org/2000/svg" width="22.633" height="20.369" viewBox="0 0 22.633 20.369">
  <g id="payment" transform="translate(-2 -5)">
    <path id="Path_3260" data-name="Path 3260" d="M13.316,6.509A8.65,8.65,0,0,1,19.45,9.051l1.068-1.068a10.184,10.184,0,0,0-17.386,7.2H2l1.886,2.64,1.886-2.64H4.64a8.677,8.677,0,0,1,8.676-8.676Z" fill="#fe6f6f"/>
    <path id="Path_3261" data-name="Path 3261" d="M30.13,25.826,29.541,25l-1.886,2.64h1.132a8.674,8.674,0,0,1-14.809,6.133L12.91,34.841A10.184,10.184,0,0,0,30.3,27.64h1.132Z" transform="translate(-6.795 -12.456)" fill="#fe6f6f"/>
    <path id="Path_3262" data-name="Path 3262" d="M16,22.035A6.035,6.035,0,1,0,22.035,16,6.042,6.042,0,0,0,16,22.035Zm1.886.377H16.754v-.754h1.132Zm.644,3.662L18,25.541l.754-.754.533.533Zm.221-6.79L18,18.53,18.53,18l.754.754Zm3.662,8.032h-.754V26.185h.754Zm3.772-5.658h1.131v.754H26.185ZM25.541,18l.533.533-.754.754-.533-.533Zm-.221,6.79.754.754-.533.533-.754-.754Zm-2.042-.975L21.769,22.3a.376.376,0,0,1-.111-.267V18.64h.754v3.239l1.4,1.4Zm-.865-5.925h-.754V16.754h.754Z" transform="translate(-8.719 -6.851)" fill="#fe6f6f"/>
  </g>
</svg>
