<svg id="Group_439" data-name="Group 439" xmlns="http://www.w3.org/2000/svg" xmlns:xlink="http://www.w3.org/1999/xlink" width="63.546" height="88.218" viewBox="0 0 63.546 88.218">
  <defs>
    <clipPath id="clip-path">
      <rect id="Rectangle_162" data-name="Rectangle 162" width="63.546" height="88.218" fill="#f6f6f6"/>
    </clipPath>
  </defs>
  <g id="Group_436" data-name="Group 436" clip-path="url(#clip-path)">
    <path id="Path_3337" data-name="Path 3337" d="M19.073,59.553,0,46.31V22.058L31.773,0l6.344,4.408L6.364,26.455V41.912L25.421,55.146Zm27-49.625,6.348,4.406c-4.768,3.31-23.828,16.547-28.6,19.856L49.229,51.832l0,4.41C43.409,60.283,23.3,74.249,17.476,78.292l-6.348-4.408L39.711,54.036c-8.463-5.876-16.953-11.8-25.395-17.648V31.977L46.071,9.928m-1.6,18.739,19.072,13.24,0,24.252L31.773,88.218,25.428,83.81,57.181,61.761V46.3L38.127,33.075Z" fill="#f6f6f6"/>
  </g>
</svg>
