<svg xmlns="http://www.w3.org/2000/svg" xmlns:xlink="http://www.w3.org/1999/xlink" width="158.3" height="41.507" viewBox="0 0 158.3 41.507">
  <defs>
    <clipPath id="clip-path">
      <rect id="Rectangle_162" data-name="Rectangle 162" width="29.899" height="41.507" fill="#292a2d"/>
    </clipPath>
  </defs>
  <g id="Group_437" data-name="Group 437" transform="translate(-330 -40.564)">
    <g id="Group_435" data-name="Group 435" transform="translate(330 40.564)">
      <g id="Group_436" data-name="Group 436" clip-path="url(#clip-path)">
        <path id="Path_3337" data-name="Path 3337" d="M8.974,28.02,0,21.789V10.378L14.949,0l2.985,2.074L2.994,12.447V19.72l8.967,6.227Zm12.7-23.349,2.987,2.073L11.209,16.087l11.953,8.3v2.075L8.223,36.837,5.236,34.763l13.449-9.339c-3.982-2.765-7.977-5.55-11.948-8.3V15.046L21.677,4.671m-.752,8.817,8.973,6.23V31.128L14.949,41.507l-2.985-2.074L26.9,29.059V21.787l-8.965-6.225Z" fill="#292a2d"/>
      </g>
    </g>
    <path id="Path_3338" data-name="Path 3338" d="M6.54.14A6.984,6.984,0,0,1,2.35-1.05,4.383,4.383,0,0,1,.56-4.54H5.28q.1,1.22,1.08,1.22a1.059,1.059,0,0,0,.61-.17.6.6,0,0,0,.25-.53.92.92,0,0,0-.54-.81A10.772,10.772,0,0,0,5-5.54a18.141,18.141,0,0,1-2.25-.94A4.361,4.361,0,0,1,1.22-7.82,3.653,3.653,0,0,1,.6-10.08a3.87,3.87,0,0,1,.71-2.35A4.385,4.385,0,0,1,3.25-13.9a7.3,7.3,0,0,1,2.77-.5,6.517,6.517,0,0,1,4.13,1.2,4.262,4.262,0,0,1,1.61,3.38H6.98a1.187,1.187,0,0,0-.3-.86A.963.963,0,0,0,6-10.94a.606.606,0,0,0-.46.19.74.74,0,0,0-.18.53.908.908,0,0,0,.53.79,12.159,12.159,0,0,0,1.69.75,19.132,19.132,0,0,1,2.21.96A4.68,4.68,0,0,1,11.3-6.44a3.247,3.247,0,0,1,.64,2.06,4.324,4.324,0,0,1-.64,2.33A4.29,4.29,0,0,1,9.44-.44,6.7,6.7,0,0,1,6.54.14Zm18.9-11.42V0H21V-1.72a4.009,4.009,0,0,1-1.39,1.3,4.085,4.085,0,0,1-2.07.5,3.739,3.739,0,0,1-3.03-1.3,5.306,5.306,0,0,1-1.09-3.52v-6.54h4.42V-5.3a1.809,1.809,0,0,0,.43,1.27,1.483,1.483,0,0,0,1.15.47,1.476,1.476,0,0,0,1.16-.47A1.836,1.836,0,0,0,21-5.3v-5.98Zm6.44,1.54a3.068,3.068,0,0,1,1.21-1.23,3.758,3.758,0,0,1,1.89-.45,4.268,4.268,0,0,1,2.38.69,4.657,4.657,0,0,1,1.67,2,7.259,7.259,0,0,1,.61,3.09,7.259,7.259,0,0,1-.61,3.09,4.657,4.657,0,0,1-1.67,2,4.268,4.268,0,0,1-2.38.69,3.758,3.758,0,0,1-1.89-.45,3.068,3.068,0,0,1-1.21-1.23V5.4H27.44V-11.28h4.44Zm3.26,4.1a1.991,1.991,0,0,0-.46-1.4,1.532,1.532,0,0,0-1.18-.5,1.532,1.532,0,0,0-1.18.5,1.991,1.991,0,0,0-.46,1.4,1.991,1.991,0,0,0,.46,1.4,1.532,1.532,0,0,0,1.18.5,1.532,1.532,0,0,0,1.18-.5A1.991,1.991,0,0,0,35.14-5.64Zm10.34-4.1a3.068,3.068,0,0,1,1.21-1.23,3.758,3.758,0,0,1,1.89-.45,4.268,4.268,0,0,1,2.38.69,4.657,4.657,0,0,1,1.67,2,7.259,7.259,0,0,1,.61,3.09,7.259,7.259,0,0,1-.61,3.09,4.657,4.657,0,0,1-1.67,2,4.268,4.268,0,0,1-2.38.69,3.758,3.758,0,0,1-1.89-.45,3.068,3.068,0,0,1-1.21-1.23V5.4H41.04V-11.28h4.44Zm3.26,4.1a1.991,1.991,0,0,0-.46-1.4,1.532,1.532,0,0,0-1.18-.5,1.532,1.532,0,0,0-1.18.5,1.991,1.991,0,0,0-.46,1.4,1.991,1.991,0,0,0,.46,1.4,1.532,1.532,0,0,0,1.18.5,1.532,1.532,0,0,0,1.18-.5A1.991,1.991,0,0,0,48.74-5.64ZM60,.14a6.588,6.588,0,0,1-3.06-.7,5.16,5.16,0,0,1-2.13-2.01,5.947,5.947,0,0,1-.77-3.07,5.947,5.947,0,0,1,.77-3.07,5.16,5.16,0,0,1,2.13-2.01,6.588,6.588,0,0,1,3.06-.7,6.588,6.588,0,0,1,3.06.7,5.16,5.16,0,0,1,2.13,2.01,5.948,5.948,0,0,1,.77,3.07,5.948,5.948,0,0,1-.77,3.07A5.16,5.16,0,0,1,63.06-.56,6.588,6.588,0,0,1,60,.14ZM60-3.7a1.316,1.316,0,0,0,1.04-.49,2.175,2.175,0,0,0,.42-1.45,2.175,2.175,0,0,0-.42-1.45A1.316,1.316,0,0,0,60-7.58a1.316,1.316,0,0,0-1.04.49,2.175,2.175,0,0,0-.42,1.45,2.212,2.212,0,0,0,.41,1.45A1.308,1.308,0,0,0,60-3.7ZM71.8-9.2a5.393,5.393,0,0,1,1.66-1.57,3.9,3.9,0,0,1,2.04-.59v4.74H74.24a3.112,3.112,0,0,0-1.85.44,1.829,1.829,0,0,0-.59,1.56V0H67.36V-11.28H71.8ZM83.72-3.78V0H82.04Q77.4,0,77.4-4.62V-7.58H76v-3.7h1.4V-14h4.44v2.72h1.84v3.7H81.84v3.04a.769.769,0,0,0,.19.58.9.9,0,0,0,.63.18Zm3.94-8.4a2.7,2.7,0,0,1-1.86-.62,2,2,0,0,1-.7-1.56,2.047,2.047,0,0,1,.7-1.59,2.675,2.675,0,0,1,1.86-.63,2.646,2.646,0,0,1,1.84.63,2.047,2.047,0,0,1,.7,1.59,2,2,0,0,1-.7,1.56A2.672,2.672,0,0,1,87.66-12.18Zm2.2.9V0H85.42V-11.28Zm8.5-.8q-.36-.04-.5-.04a1.278,1.278,0,0,0-.76.19,1.042,1.042,0,0,0-.36.65h1.62v3.7H96.7V0H92.26V-7.58h-1.2v-3.7h1.2a4.458,4.458,0,0,1,1.39-3.41,5.483,5.483,0,0,1,3.79-1.21q.28,0,.92.04Zm13.94.8L105.08,5.4h-4.86l2.84-5.96-4.7-10.72h4.94l2.12,5.72,1.98-5.72Z" transform="translate(376 68)" fill="#292a2d"/>
  </g>
</svg>
