<svg xmlns="http://www.w3.org/2000/svg" width="203" height="64" viewBox="0 0 203 64">
  <g id="Group_328" data-name="Group 328" transform="translate(0 0.24)">
    <g id="Group_319" data-name="Group 319" transform="translate(0 0)">
      <rect id="Rectangle_37" data-name="Rectangle 37" width="203" height="64" rx="32" transform="translate(0 -0.24)" fill="#9e94f7"/>
    </g>
    <g id="Group_320" data-name="Group 320" transform="translate(49.115 13.566)">
      <path id="Path_3254" data-name="Path 3254" d="M111.483-54.18a4.65,4.65,0,0,1-2.853-.673,3.269,3.269,0,0,1-1.063-2.186,39.771,39.771,0,0,1-.22-5.034,39.77,39.77,0,0,1,.22-5.034,3.269,3.269,0,0,1,1.063-2.186,4.65,4.65,0,0,1,2.853-.673,4.706,4.706,0,0,1,2.865.673,3.244,3.244,0,0,1,1.074,2.186,39.791,39.791,0,0,1,.219,5.034,39.792,39.792,0,0,1-.219,5.034,3.244,3.244,0,0,1-1.074,2.186A4.706,4.706,0,0,1,111.483-54.18Zm-11.067-.179V-69.786h2.8v12.937H106.4v2.489ZM93-54.36V-69.786h6.03v2.444H95.8v4.283H98.66v2.444H95.8v6.256Zm50.526,0V-69.786h6.331v2.444h-3.535v3.969h3.1v2.444h-3.1V-56.8h3.535v2.444Zm-6.423,0V-67.3h-2.472v-2.489h7.74V-67.3H139.9V-54.36Zm20.146,0-.531-3.386h-2.726l-.531,3.386h-2.749l2.611-15.426h4.112l2.634,15.426Zm-32.229,0-1.386-11.256H123.5L122.133-54.36h-3.881l-1.8-15.426h2.819L120.285-57.3h.162l1.479-12.489h3.4L126.846-57.3h.162l.97-12.489H130.7L128.9-54.36Zm-13.538-2.265a1.29,1.29,0,0,0,.947-.269,2.455,2.455,0,0,0,.335-1.323q.081-1.054.081-3.857t-.081-3.857a2.455,2.455,0,0,0-.335-1.323,1.29,1.29,0,0,0-.947-.269,1.247,1.247,0,0,0-.936.269,2.636,2.636,0,0,0-.335,1.334q-.093,1.065-.093,3.845t.093,3.845a2.636,2.636,0,0,0,.335,1.334A1.247,1.247,0,0,0,111.483-56.624Zm43.942-10.381h-.138l-1.017,6.883h2.172ZM110.7-90.656v8.632a32.389,32.389,0,0,1-.208,4.406,2.848,2.848,0,0,1-1.04,1.951,4.764,4.764,0,0,1-2.773.617,4.764,4.764,0,0,1-2.772-.617,2.847,2.847,0,0,1-1.04-1.951,32.309,32.309,0,0,1-.208-4.406v-8.632h2.772v9.686q0,1.727.07,2.388a1.363,1.363,0,0,0,.312.874,1.333,1.333,0,0,0,.866.213,1.332,1.332,0,0,0,.866-.213,1.344,1.344,0,0,0,.312-.863q.069-.65.069-2.4v-9.686Zm-17.7,0h4.343a3.265,3.265,0,0,1,2.576.953,4.32,4.32,0,0,1,.843,2.926,5.411,5.411,0,0,1-.462,2.5,2.237,2.237,0,0,1-1.456,1.132v.09a2.342,2.342,0,0,1,1.583,1.11,5.458,5.458,0,0,1,.474,2.59,4.868,4.868,0,0,1-.832,3.083,3.314,3.314,0,0,1-2.749,1.043H93Zm46.876,15.426V-90.656h6.33v2.444h-3.535v3.969h3.1V-81.8h-3.1v4.126h3.535v2.444Zm-24.928,0v-5.516l-3.1-9.91h2.8l1.664,6.883h.231l1.594-6.883h2.7l-3.1,9.91v5.516Zm42.671,0-.531-3.386h-2.726l-.531,3.386h-2.749l2.611-15.426H157.8l2.633,15.426Zm-22.711,0V-87.158h-.162L132.9-75.229h-2.8l-1.8-11.928h-.185v11.928h-2.634V-90.656h4.32l1.71,11.368h.162l1.71-11.368h4.2v15.426ZM96.766-77.673a1.86,1.86,0,0,0,.878-.157.825.825,0,0,0,.369-.583,7,7,0,0,0,.093-1.345,5.662,5.662,0,0,0-.115-1.334.9.9,0,0,0-.393-.594,1.734,1.734,0,0,0-.832-.157H95.749v4.17Zm59.029-10.2h-.139l-1.016,6.883h2.171ZM96.743-84.221a1.211,1.211,0,0,0,1.051-.4,2.993,2.993,0,0,0,.289-1.592,5.793,5.793,0,0,0-.1-1.289.811.811,0,0,0-.381-.561,1.916,1.916,0,0,0-.855-.146h-.993v3.991Z" transform="translate(-55.582 90.656)" fill="#fff"/>
      <path id="Path_3255" data-name="Path 3255" d="M13.39-90.234H7.279A7.283,7.283,0,0,0,0-82.955L1.8-61.208c0,4.017,1.464,7.279,5.482,7.279H21.837c4.017,0,6.2-3.262,6.2-7.279l1.078-21.747a7.283,7.283,0,0,0-7.279-7.279H15.726v9.719a3.453,3.453,0,0,1,3.145,3.437V-71.9a2.158,2.158,0,0,1-2.157,2.157H12.4A2.158,2.158,0,0,1,10.245-71.9v-5.176a3.453,3.453,0,0,1,3.145-3.437Zm1.168,11.363A1.169,1.169,0,0,1,15.726-77.7a1.169,1.169,0,0,1-1.168,1.168A1.169,1.169,0,0,1,13.39-77.7,1.169,1.169,0,0,1,14.558-78.871Z" transform="translate(0 90.404)" fill="#fff" fill-rule="evenodd"/>
    </g>
  </g>
</svg>
